{
	"asset":{
		"version":"2.0",
		"generator":"Created using the official Cinema 4D glTF Exporter 1.000x284978"
	},
	"scenes":[{
		"nodes":[0]
	}],
	"nodes":[{
		"name":"Capsule.2",
		"translation":[0.0,
		0.0,
		0.0],
		"rotation":[0.0,
		0.0,
		0.0,
		-1.0],
		"scale":[1.0,
		1.0,
		1.0],
		"children":[1,
		2,
		3,
		4,
		5,
		6]
	},
	{
		"name":"Capsule.2-Mat.1",
		"translation":[0.0,
		0.0,
		0.0],
		"rotation":[0.0,
		0.0,
		0.0,
		-1.0],
		"scale":[1.0,
		1.0,
		1.0],
		"mesh":0
	},
	{
		"name":"Capsule.2-Mat",
		"translation":[0.0,
		0.0,
		0.0],
		"rotation":[0.0,
		0.0,
		0.0,
		-1.0],
		"scale":[1.0,
		1.0,
		1.0],
		"mesh":1
	},
	{
		"name":"Capsule.2-Mat.3",
		"translation":[0.0,
		0.0,
		0.0],
		"rotation":[0.0,
		0.0,
		0.0,
		-1.0],
		"scale":[1.0,
		1.0,
		1.0],
		"mesh":2
	},
	{
		"name":"Capsule.2-Mat.2",
		"translation":[0.0,
		0.0,
		0.0],
		"rotation":[0.0,
		0.0,
		0.0,
		-1.0],
		"scale":[1.0,
		1.0,
		1.0],
		"mesh":3
	},
	{
		"name":"Capsule.2-Mat.5",
		"translation":[0.0,
		0.0,
		0.0],
		"rotation":[0.0,
		0.0,
		0.0,
		-1.0],
		"scale":[1.0,
		1.0,
		1.0],
		"mesh":4
	},
	{
		"name":"Capsule.2-Mat.4",
		"translation":[0.0,
		0.0,
		0.0],
		"rotation":[0.0,
		0.0,
		0.0,
		-1.0],
		"scale":[1.0,
		1.0,
		1.0],
		"mesh":5
	}],
	"bufferViews":[{
		"buffer":0,
		"byteLength":18336,
		"byteOffset":0,
		"target":34963
	},
	{
		"buffer":0,
		"byteLength":52736,
		"byteOffset":18336,
		"target":34962,
		"byteStride":32
	},
	{
		"buffer":1,
		"byteLength":18336,
		"byteOffset":0,
		"target":34963
	},
	{
		"buffer":1,
		"byteLength":52736,
		"byteOffset":18336,
		"target":34962,
		"byteStride":32
	},
	{
		"buffer":2,
		"byteLength":18528,
		"byteOffset":0,
		"target":34963
	},
	{
		"buffer":2,
		"byteLength":53280,
		"byteOffset":18528,
		"target":34962,
		"byteStride":32
	},
	{
		"buffer":3,
		"byteLength":18144,
		"byteOffset":0,
		"target":34963
	},
	{
		"buffer":3,
		"byteLength":52192,
		"byteOffset":18144,
		"target":34962,
		"byteStride":32
	},
	{
		"buffer":4,
		"byteLength":18336,
		"byteOffset":0,
		"target":34963
	},
	{
		"buffer":4,
		"byteLength":52736,
		"byteOffset":18336,
		"target":34962,
		"byteStride":32
	},
	{
		"buffer":5,
		"byteLength":18336,
		"byteOffset":0,
		"target":34963
	},
	{
		"buffer":5,
		"byteLength":52736,
		"byteOffset":18336,
		"target":34962,
		"byteStride":32
	}],
	"meshes":[{
		"name":"Capsule.2-Mat.1",
		"primitives":[{
			"attributes":{
				"POSITION":1,
				"NORMAL":2,
				"TEXCOORD_0":3
			},
			"indices":0,
			"material":0
		}]
	},
	{
		"name":"Capsule.2-Mat",
		"primitives":[{
			"attributes":{
				"POSITION":5,
				"NORMAL":6,
				"TEXCOORD_0":7
			},
			"indices":4,
			"material":1
		}]
	},
	{
		"name":"Capsule.2-Mat.3",
		"primitives":[{
			"attributes":{
				"POSITION":9,
				"NORMAL":10,
				"TEXCOORD_0":11
			},
			"indices":8,
			"material":2
		}]
	},
	{
		"name":"Capsule.2-Mat.2",
		"primitives":[{
			"attributes":{
				"POSITION":13,
				"NORMAL":14,
				"TEXCOORD_0":15
			},
			"indices":12,
			"material":3
		}]
	},
	{
		"name":"Capsule.2-Mat.5",
		"primitives":[{
			"attributes":{
				"POSITION":17,
				"NORMAL":18,
				"TEXCOORD_0":19
			},
			"indices":16,
			"material":4
		}]
	},
	{
		"name":"Capsule.2-Mat.4",
		"primitives":[{
			"attributes":{
				"POSITION":21,
				"NORMAL":22,
				"TEXCOORD_0":23
			},
			"indices":20,
			"material":5
		}]
	}],
	"accessors":[{
		"bufferView":0,
		"type":"SCALAR",
		"componentType":5123,
		"count":9168,
		"byteOffset":0,
		"min":[0],
		"max":[1647]
	},
	{
		"bufferView":1,
		"type":"VEC3",
		"componentType":5126,
		"count":1648,
		"byteOffset":0,
		"min":[-50.0,
		-100.0,
		-50.0],
		"max":[50.0,
		0.0,
		50.0]
	},
	{
		"bufferView":1,
		"type":"VEC3",
		"componentType":5126,
		"count":1648,
		"byteOffset":12,
		"min":[-0.9999688267707825,
		-1.0,
		-0.9999688267707825],
		"max":[0.9999688267707825,
		0.0,
		0.9999688267707825]
	},
	{
		"bufferView":1,
		"type":"VEC2",
		"componentType":5126,
		"count":1648,
		"byteOffset":24,
		"min":[0.0,
		0.5],
		"max":[1.0,
		1.0]
	},
	{
		"bufferView":2,
		"type":"SCALAR",
		"componentType":5123,
		"count":9168,
		"byteOffset":0,
		"min":[0],
		"max":[1647]
	},
	{
		"bufferView":3,
		"type":"VEC3",
		"componentType":5126,
		"count":1648,
		"byteOffset":0,
		"min":[-50.0,
		0.0,
		-50.0],
		"max":[50.0,
		100.0,
		50.0]
	},
	{
		"bufferView":3,
		"type":"VEC3",
		"componentType":5126,
		"count":1648,
		"byteOffset":12,
		"min":[-0.9999688267707825,
		0.0,
		-0.9999688267707825],
		"max":[0.9999688267707825,
		1.0,
		0.9999688267707825]
	},
	{
		"bufferView":3,
		"type":"VEC2",
		"componentType":5126,
		"count":1648,
		"byteOffset":24,
		"min":[0.0,
		0.0],
		"max":[1.0,
		0.5]
	},
	{
		"bufferView":4,
		"type":"SCALAR",
		"componentType":5123,
		"count":9264,
		"byteOffset":0,
		"min":[0],
		"max":[1664]
	},
	{
		"bufferView":5,
		"type":"VEC3",
		"componentType":5126,
		"count":1665,
		"byteOffset":0,
		"min":[-50.0,
		-50.0,
		-1.5625],
		"max":[50.0,
		50.0,
		100.0]
	},
	{
		"bufferView":5,
		"type":"VEC3",
		"componentType":5126,
		"count":1665,
		"byteOffset":12,
		"min":[-0.9999688267707825,
		-0.9999688267707825,
		0.0],
		"max":[0.9999688267707825,
		0.9999688267707825,
		1.0]
	},
	{
		"bufferView":5,
		"type":"VEC2",
		"componentType":5126,
		"count":1665,
		"byteOffset":24,
		"min":[0.0,
		0.0],
		"max":[1.0,
		0.5060780048370361]
	},
	{
		"bufferView":6,
		"type":"SCALAR",
		"componentType":5123,
		"count":9072,
		"byteOffset":0,
		"min":[0],
		"max":[1630]
	},
	{
		"bufferView":7,
		"type":"VEC3",
		"componentType":5126,
		"count":1631,
		"byteOffset":0,
		"min":[-50.0,
		-50.0,
		-100.0],
		"max":[50.0,
		50.0,
		-1.5625]
	},
	{
		"bufferView":7,
		"type":"VEC3",
		"componentType":5126,
		"count":1631,
		"byteOffset":12,
		"min":[-0.9999688267707825,
		-0.9999688267707825,
		-1.0],
		"max":[0.9999688267707825,
		0.9999688267707825,
		0.0]
	},
	{
		"bufferView":7,
		"type":"VEC2",
		"componentType":5126,
		"count":1631,
		"byteOffset":24,
		"min":[0.0,
		0.5060780048370361],
		"max":[1.0,
		1.0]
	},
	{
		"bufferView":8,
		"type":"SCALAR",
		"componentType":5123,
		"count":9168,
		"byteOffset":0,
		"min":[0],
		"max":[1647]
	},
	{
		"bufferView":9,
		"type":"VEC3",
		"componentType":5126,
		"count":1648,
		"byteOffset":0,
		"min":[-100.0,
		-50.0,
		-50.0],
		"max":[3.0616168932349034e-15,
		50.0,
		50.0]
	},
	{
		"bufferView":9,
		"type":"VEC3",
		"componentType":5126,
		"count":1648,
		"byteOffset":12,
		"min":[-1.0,
		-0.9999688267707825,
		-0.9999688267707825],
		"max":[0.0,
		0.9999688267707825,
		0.9999688267707825]
	},
	{
		"bufferView":9,
		"type":"VEC2",
		"componentType":5126,
		"count":1648,
		"byteOffset":24,
		"min":[0.0,
		0.5],
		"max":[1.0,
		1.0]
	},
	{
		"bufferView":10,
		"type":"SCALAR",
		"componentType":5123,
		"count":9168,
		"byteOffset":0,
		"min":[0],
		"max":[1647]
	},
	{
		"bufferView":11,
		"type":"VEC3",
		"componentType":5126,
		"count":1648,
		"byteOffset":0,
		"min":[-3.0616168932349034e-15,
		-50.0,
		-50.0],
		"max":[100.0,
		50.0,
		50.0]
	},
	{
		"bufferView":11,
		"type":"VEC3",
		"componentType":5126,
		"count":1648,
		"byteOffset":12,
		"min":[0.0,
		-0.9999688267707825,
		-0.9999688267707825],
		"max":[1.0,
		0.9999688267707825,
		0.9999688267707825]
	},
	{
		"bufferView":11,
		"type":"VEC2",
		"componentType":5126,
		"count":1648,
		"byteOffset":24,
		"min":[0.0,
		0.0],
		"max":[1.0,
		0.5]
	}],
	"buffers":[{
		"uri":"data:application/octet-stream;base64,",
		"byteLength":71072
	},
	{
		"uri":"data:application/octet-stream;base64,",
		"byteLength":71072
	},
	{
		"uri":"data:application/octet-stream;base64,",
		"byteLength":71808
	},
	{
		"uri":"data:application/octet-stream;base64,",
		"byteLength":70336
	},
	{
		"uri":"data:application/octet-stream;base64,",
		"byteLength":71072
	},
	{
		"uri":"data:application/octet-stream;base64,",
		"byteLength":71072
	}],
	"materials":[{
		"pbrMetallicRoughness":{
			"baseColorFactor":[0.9843137264251709,
			0.9843137264251709,
			0.7137255072593689,
			1.0],
			"metallicFactor":1.0,
			"roughnessFactor":1.0
		},
		"emissiveFactor":[0.0,
		0.0,
		0.0],
		"alphaMode":"OPAQUE",
		"doubleSided":false,
		"name":"Mat.1"
	},
	{
		"pbrMetallicRoughness":{
			"baseColorFactor":[0.7019608020782471,
			0.8509804010391234,
			0.9686274528503418,
			1.0],
			"metallicFactor":1.0,
			"roughnessFactor":1.0
		},
		"emissiveFactor":[0.0,
		0.0,
		0.0],
		"alphaMode":"OPAQUE",
		"doubleSided":false,
		"name":"Mat"
	},
	{
		"pbrMetallicRoughness":{
			"baseColorFactor":[0.7215686440467835,
			0.9843137264251709,
			0.7764706015586854,
			1.0],
			"metallicFactor":1.0,
			"roughnessFactor":1.0
		},
		"emissiveFactor":[0.0,
		0.0,
		0.0],
		"alphaMode":"OPAQUE",
		"doubleSided":false,
		"name":"Mat.3"
	},
	{
		"pbrMetallicRoughness":{
			"baseColorFactor":[0.9607843160629273,
			0.6705882549285889,
			0.6980392336845399,
			1.0],
			"metallicFactor":1.0,
			"roughnessFactor":1.0
		},
		"emissiveFactor":[0.0,
		0.0,
		0.0],
		"alphaMode":"OPAQUE",
		"doubleSided":false,
		"name":"Mat.2"
	},
	{
		"pbrMetallicRoughness":{
			"baseColorFactor":[0.9624183028936386,
			0.7215686440467835,
			0.9843137264251709,
			1.0],
			"metallicFactor":1.0,
			"roughnessFactor":1.0
		},
		"emissiveFactor":[0.0,
		0.0,
		0.0],
		"alphaMode":"OPAQUE",
		"doubleSided":false,
		"name":"Mat.5"
	},
	{
		"pbrMetallicRoughness":{
			"baseColorFactor":[0.9843137264251709,
			0.7382352948188784,
			0.49215686321258547,
			1.0],
			"metallicFactor":1.0,
			"roughnessFactor":1.0
		},
		"emissiveFactor":[0.0,
		0.0,
		0.0],
		"alphaMode":"OPAQUE",
		"doubleSided":false,
		"name":"Mat.4"
	}]
}